<?xml version="1.0" encoding="UTF-8"?>
<svg version="1.1" xmlns="http://www.w3.org/2000/svg" width="500" height="85">
<path d="M0 0 C4.36047317 2.43180234 6.63852352 4.7428873 8.0625 9.5625 C8.124375 10.305 8.18625 11.0475 8.25 11.8125 C7.25 12.8125 7.25 12.8125 5.40234375 12.91015625 C3.3515625 12.87760417 1.30078125 12.84505208 -0.75 12.8125 C-1.03875 12.173125 -1.3275 11.53375 -1.625 10.875 C-2.57823451 8.66043921 -2.57823451 8.66043921 -4.75 7.8125 C-6.29023996 7.74299459 -7.83334988 7.72797643 -9.375 7.75 C-10.19226562 7.75902344 -11.00953125 7.76804687 -11.8515625 7.77734375 C-12.47804688 7.78894531 -13.10453125 7.80054688 -13.75 7.8125 C-11.13109537 11.00924124 -8.13969042 11.98921822 -4.3125 13.375 C6.90314332 17.47081514 6.90314332 17.47081514 9.25 21.8125 C9.76852266 25.88660663 9.69210792 28.04731321 7.625 31.625 C2.735303 36.12866829 -2.6155409 36.19671919 -8.9921875 36.06640625 C-13.85738028 35.61847774 -17.92617836 34.40098981 -21.6875 31.125 C-23.25141368 27.72118787 -23.43930374 24.54085513 -23.75 20.8125 C-20.78 20.8125 -17.81 20.8125 -14.75 20.8125 C-14.46125 21.616875 -14.1725 22.42125 -13.875 23.25 C-13.01737432 25.9451468 -13.01737432 25.9451468 -10.75 26.8125 C-8.87620395 26.88283769 -6.99998898 26.8968022 -5.125 26.875 C-4.12210938 26.86597656 -3.11921875 26.85695313 -2.0859375 26.84765625 C-0.92964844 26.83025391 -0.92964844 26.83025391 0.25 26.8125 C-0.08 25.8225 -0.41 24.8325 -0.75 23.8125 C-4.02373674 22.44470588 -7.29843258 21.32433555 -10.671875 20.23828125 C-15.45099941 18.59545723 -18.45366378 16.82597807 -21.75 12.8125 C-22.08 11.8225 -22.41 10.8325 -22.75 9.8125 C-23.41 9.8125 -24.07 9.8125 -24.75 9.8125 C-24.75 8.1625 -24.75 6.5125 -24.75 4.8125 C-23.656875 4.73 -22.56375 4.6475 -21.4375 4.5625 C-17.72895572 4.19621225 -17.72895572 4.19621225 -16 1.8125 C-15.5875 1.1525 -15.175 0.4925 -14.75 -0.1875 C-9.50483528 -1.93588824 -5.17489039 -1.63871529 0 0 Z " fill="#F8EEE8" transform="translate(24.75,23.1875)"/>
<path d="M0 0 C2.87325046 1.82843211 4.23462828 2.71925657 5.75 5.75 C6.28162392 8.76253552 6.52500791 11.69010758 6.75 14.75 C0.81 15.08 -5.13 15.41 -11.25 15.75 C-5.8297509 17.90811388 -5.8297509 17.90811388 -2.25 17.75 C-2.25 17.09 -2.25 16.43 -2.25 15.75 C1.05 15.75 4.35 15.75 7.75 15.75 C6.39844718 20.17326378 4.55109562 22.15412982 0.75 24.75 C-4.27858199 26.426194 -8.59030411 26.35642735 -13.5 24.5625 C-16.7277235 22.43513679 -18.39407493 21.17632321 -20.25 17.75 C-20.9050735 12.86271007 -20.83948383 8.41442495 -19.1875 3.75 C-13.8934901 -1.71478442 -6.91575065 -2.6599041 0 0 Z M-11.25 6.75 C-11.58 7.41 -11.91 8.07 -12.25 8.75 C-8.95 8.75 -5.65 8.75 -2.25 8.75 C-2.58 8.09 -2.91 7.43 -3.25 6.75 C-5.89 6.75 -8.53 6.75 -11.25 6.75 Z " fill="#FAF0EA" transform="translate(137.25,33.25)"/>
<path d="M0 0 C3.68349658 4.25904292 4 7.75432024 4 13.3125 C-1.94 13.6425 -7.88 13.9725 -14 14.3125 C-8.5797509 16.47061388 -8.5797509 16.47061388 -5 16.3125 C-5 15.6525 -5 14.9925 -5 14.3125 C-1.7 14.3125 1.6 14.3125 5 14.3125 C3.64844718 18.73576378 1.80109562 20.71662982 -2 23.3125 C-7.02858199 24.988694 -11.34030411 24.91892735 -16.25 23.125 C-19.4777235 20.99763679 -21.14407493 19.73882321 -23 16.3125 C-23.6550735 11.42521007 -23.58948383 6.97692495 -21.9375 2.3125 C-15.8978761 -3.92195048 -7.35195908 -4.13547698 0 0 Z M-14 5.3125 C-14.33 5.9725 -14.66 6.6325 -15 7.3125 C-11.7 7.3125 -8.4 7.3125 -5 7.3125 C-5.33 6.6525 -5.66 5.9925 -6 5.3125 C-8.64 5.3125 -11.28 5.3125 -14 5.3125 Z " fill="#F9F0EA" transform="translate(238,34.6875)"/>
<path d="M0 0 C0 2.64 0 5.28 0 8 C-2.31 8.33 -4.62 8.66 -7 9 C-7.33 9.99 -7.66 10.98 -8 12 C-5.69 12 -3.38 12 -1 12 C-1 14.31 -1 16.62 -1 19 C-3.31 19 -5.62 19 -8 19 C-8 22.63 -8 26.26 -8 30 C-5.69 30 -3.38 30 -1 30 C-1 32.31 -1 34.62 -1 37 C-7.93 37 -14.86 37 -22 37 C-22 34.69 -22 32.38 -22 30 C-20.35 30 -18.7 30 -17 30 C-17 26.37 -17 22.74 -17 19 C-18.65 19 -20.3 19 -22 19 C-22 16.69 -22 14.38 -22 12 C-20.35 12 -18.7 12 -17 12 C-16.9175 10.9275 -16.835 9.855 -16.75 8.75 C-15.93508472 4.67542358 -15.27879877 3.43567909 -12 1 C-8.28396069 -0.59258828 -3.96786602 -0.0661311 0 0 Z " fill="#FAF0EB" transform="translate(90,21)"/>
<path d="M0 0 C3.2277235 2.12736321 4.89407493 3.38617679 6.75 6.8125 C7.4050735 11.69978993 7.33948383 16.14807505 5.6875 20.8125 C2.06142388 24.55554632 -2.19058973 25.96182196 -7.3125 26.1875 C-12.60405508 25.68354237 -15.59579598 24.20551391 -19.625 20.8125 C-22.11229208 16.22057617 -22.11795235 11.91546124 -21.25 6.8125 C-19.58960695 3.36922588 -17.22650326 1.39312356 -13.9375 -0.5625 C-8.85856661 -1.7436473 -4.8458393 -1.77059513 0 0 Z M-12.25 9 C-13.54005448 11.7801527 -13.54005448 11.7801527 -12.5 14.5625 C-11.43887078 16.71520293 -11.43887078 16.71520293 -10.25 17.8125 C-7.33461971 18.31292146 -7.33461971 18.31292146 -4.25 17.8125 C-2.07979708 15.72328244 -2.07979708 15.72328244 -1.25 12.8125 C-1.91280383 10.38221928 -2.4510972 8.6114028 -4.25 6.8125 C-8.82485614 6.19436141 -8.82485614 6.19436141 -12.25 9 Z " fill="#F9EFEA" transform="translate(58.25,33.1875)"/>
<path d="M0 0 C3.00861961 2.93147552 4.85673482 5.60084738 5.11352539 9.90112305 C5.10828857 10.59761963 5.10305176 11.29411621 5.09765625 12.01171875 C5.09443359 12.76904297 5.09121094 13.52636719 5.08789062 14.30664062 C5.07951172 15.09232422 5.07113281 15.87800781 5.0625 16.6875 C5.05798828 17.48478516 5.05347656 18.28207031 5.04882812 19.10351562 C5.0370585 21.06904257 5.01912348 23.03453085 5 25 C2.03 25 -0.94 25 -4 25 C-4.06058594 23.85660156 -4.12117188 22.71320312 -4.18359375 21.53515625 C-4.26798428 20.04425695 -4.35263302 18.55337225 -4.4375 17.0625 C-4.47681641 16.30775391 -4.51613281 15.55300781 -4.55664062 14.77539062 C-4.44038024 11.08055813 -4.44038024 11.08055813 -6 8 C-9.51745287 8.25248627 -9.51745287 8.25248627 -13 9 C-14.4807848 11.9615696 -14.35314037 14.83506295 -14.5625 18.125 C-14.64628906 19.40632813 -14.73007813 20.68765625 -14.81640625 22.0078125 C-14.87699219 22.99523437 -14.93757812 23.98265625 -15 25 C-17.97 25 -20.94 25 -24 25 C-24 16.75 -24 8.5 -24 0 C-21.03 0 -18.06 0 -15 0 C-14.67 0.99 -14.34 1.98 -14 3 C-13.566875 2.525625 -13.13375 2.05125 -12.6875 1.5625 C-9.0192269 -1.83404917 -4.52626414 -1.35057882 0 0 Z M-16 4 C-15 7 -15 7 -15 7 Z " fill="#F9EFEA" transform="translate(206,33)"/>
<path d="M0 0 C3.79674246 1.72579203 5.4615318 3.16115554 7 7 C7.22705078 9.19824219 7.22705078 9.19824219 7.1953125 11.546875 C7.18886719 12.39121094 7.18242187 13.23554687 7.17578125 14.10546875 C7.15902344 14.97816406 7.14226562 15.85085937 7.125 16.75 C7.11597656 17.63816406 7.10695312 18.52632812 7.09765625 19.44140625 C7.07414577 21.62788058 7.04128499 23.81380094 7 26 C4.36 26 1.72 26 -1 26 C-1.06058594 25.02417969 -1.12117188 24.04835938 -1.18359375 23.04296875 C-1.26738281 21.77066406 -1.35117188 20.49835937 -1.4375 19.1875 C-1.51871094 17.92292969 -1.59992188 16.65835938 -1.68359375 15.35546875 C-1.87184547 12.00818107 -1.87184547 12.00818107 -3 9 C-5.87364791 8.58253392 -5.87364791 8.58253392 -9 9 C-11.85775459 12.66655305 -12.43605449 15.73619176 -12.6875 20.3125 C-12.78611328 21.91544922 -12.78611328 21.91544922 -12.88671875 23.55078125 C-12.92410156 24.35902344 -12.96148437 25.16726562 -13 26 C-15.97 26 -18.94 26 -22 26 C-22.02886984 22.02084841 -22.04675406 18.04172347 -22.0625 14.0625 C-22.07087891 12.92619141 -22.07925781 11.78988281 -22.08789062 10.61914062 C-22.09111328 9.53955078 -22.09433594 8.45996094 -22.09765625 7.34765625 C-22.10289307 6.34742432 -22.10812988 5.34719238 -22.11352539 4.31665039 C-22 2 -22 2 -21 1 C-18.32941149 0.85884839 -15.67567762 0.95752893 -13 1 C-12.67 2.32 -12.34 3.64 -12 5 C-11.38125 4.360625 -10.7625 3.72125 -10.125 3.0625 C-6.7586549 -0.20483495 -4.63724366 -0.36370538 0 0 Z " fill="#F9F0EA" transform="translate(170,32)"/>
<path d="M0 0 C3.41792814 2.84827345 5.2188576 4.96907279 6.625 9.1875 C7.53735706 21.22762187 7.53735706 21.22762187 4.9375 26.8125 C0.50192854 31.36795177 -2.59111193 33.95157728 -9.0625 34.5 C-13.82004787 34.41238402 -17.5818643 33.07230165 -21.375 30.1875 C-25.80810462 24.6812519 -26.83473736 19.0835604 -26.375 12.1875 C-25.0359581 6.64154695 -22.93121273 2.79008681 -18.375 -0.8125 C-12.17162406 -3.91418797 -5.97479241 -3.20868481 0 0 Z M-19.375 6.1875 C-21.53743948 10.71832557 -22.0163133 15.24445439 -21.375 20.1875 C-19.81612477 24.31851935 -18.29990273 27.05683852 -14.375 29.1875 C-10.50069568 30.39283912 -8.60527795 30.25775429 -4.6875 29.0625 C-1.02197888 26.98767672 0.1055515 26.07053506 1.625 22.1875 C2.9893329 16.61292104 2.76349359 12.25866517 0.70703125 6.9140625 C-0.70683584 4.65800022 -2.08455028 3.54465259 -4.375 2.1875 C-10.26530659 1.12437149 -15.34704069 1.40429831 -19.375 6.1875 Z " fill="#B3B3B3" transform="translate(289.375,24.8125)"/>
<path d="M0 0 C3.80074612 0.7247669 5.42449676 2.37563285 7.6015625 5.49609375 C8.74233907 8.91842347 8.69971367 11.58282592 8.6640625 15.18359375 C8.65503906 16.36308594 8.64601563 17.54257812 8.63671875 18.7578125 C8.62511719 19.66144531 8.61351562 20.56507812 8.6015625 21.49609375 C9.5915625 21.49609375 10.5815625 21.49609375 11.6015625 21.49609375 C11.6015625 22.81609375 11.6015625 24.13609375 11.6015625 25.49609375 C8.2265625 25.62109375 8.2265625 25.62109375 4.6015625 25.49609375 C3.9415625 24.83609375 3.2815625 24.17609375 2.6015625 23.49609375 C2.0859375 23.99109375 1.5703125 24.48609375 1.0390625 24.99609375 C-2.3511365 27.08237006 -4.4555607 26.89038143 -8.3984375 26.49609375 C-11.16349604 25.65350148 -13.72705765 24.62088527 -16.3984375 23.49609375 C-15.81587833 19.92708181 -15.05067386 16.72759704 -13.3984375 13.49609375 C-10.5596592 11.61490733 -7.7311784 11.03594269 -4.3984375 10.49609375 C-3.69074219 10.36976562 -2.98304688 10.2434375 -2.25390625 10.11328125 C-0.64259882 9.8573098 0.97920456 9.66868502 2.6015625 9.49609375 C1.9415625 8.17609375 1.2815625 6.85609375 0.6015625 5.49609375 C-2.77244328 5.07883697 -2.77244328 5.07883697 -6.3984375 5.49609375 C-8.20631056 7.87011792 -8.20631056 7.87011792 -9.3984375 10.49609375 C-10.3884375 10.82609375 -11.3784375 11.15609375 -12.3984375 11.49609375 C-13.0584375 11.16609375 -13.7184375 10.83609375 -14.3984375 10.49609375 C-14.11799985 7.22432119 -13.36034608 5.43895662 -11.5234375 2.68359375 C-7.52544073 -0.11500399 -4.79469793 -0.21324128 0 0 Z M-9.3984375 16.49609375 C-9.0684375 18.14609375 -8.7384375 19.79609375 -8.3984375 21.49609375 C-5.81585522 22.45260571 -4.5333976 22.53230256 -1.8359375 21.80859375 C0.85498272 20.35963671 2.0511744 19.10727371 3.6015625 16.49609375 C3.6015625 15.83609375 3.6015625 15.17609375 3.6015625 14.49609375 C2.18533034 14.44162328 0.76848059 14.40308867 -0.6484375 14.37109375 C-1.83179688 14.33628906 -1.83179688 14.33628906 -3.0390625 14.30078125 C-5.60575691 14.51325595 -7.1900442 15.2095527 -9.3984375 16.49609375 Z " fill="#B5B4B4" transform="translate(420.3984375,32.50390625)"/>
<path d="M0 0 C3.24934121 1.82775443 4.5600113 3.18287812 6.3125 6.4375 C7 9 7 9 7 14 C0.73 14 -5.54 14 -12 14 C-10.5679835 18.78988522 -10.5679835 18.78988522 -8.25 20.375 C-5.13466759 21.24037011 -3.07917627 20.9371406 0 20 C1.43637698 18.04836882 1.43637698 18.04836882 2 16 C3.98 16 5.96 16 8 16 C5.71879937 22.36334913 5.71879937 22.36334913 2.8125 24.9375 C-2.26340776 26.85506516 -6.32969856 26.59878731 -11.3125 24.8125 C-14.50781348 22.65752114 -15.64078916 21.62456225 -17 18 C-17.61262631 13.54144183 -18.08862095 9.07644366 -15.9453125 4.98828125 C-11.37293725 -0.5986743 -6.83724576 -0.77524676 0 0 Z M-12 8 C-12 8.66 -12 9.32 -12 10 C-7.71 10 -3.42 10 1 10 C1.33 9.34 1.66 8.68 2 8 C-0.26056472 5.2177665 -1.4055726 4.09907123 -5 3.5 C-8.62221751 4.10370292 -9.79551272 5.11720894 -12 8 Z " fill="#ACACAC" transform="translate(348,33)"/>
<path d="M0 0 C0.886875 -0.01417969 1.77375 -0.02835938 2.6875 -0.04296875 C5 0.1875 5 0.1875 7 2.1875 C7.14517744 5.0968558 7.18630796 7.907446 7.125 10.8125 C7.11597656 11.61429688 7.10695313 12.41609375 7.09765625 13.2421875 C7.07406223 15.22408523 7.03819065 17.20582981 7 19.1875 C9.31 19.1875 11.62 19.1875 14 19.1875 C14 21.4975 14 23.8075 14 26.1875 C6.74 26.1875 -0.52 26.1875 -8 26.1875 C-8 23.8775 -8 21.5675 -8 19.1875 C-5.69 19.1875 -3.38 19.1875 -1 19.1875 C-1 15.5575 -1 11.9275 -1 8.1875 C-2.98 8.1875 -4.96 8.1875 -7 8.1875 C-7 5.8775 -7 3.5675 -7 1.1875 C-4.52224905 -0.05137548 -2.76346293 0.02008331 0 0 Z " fill="#FAF0EB" transform="translate(100,31.8125)"/>
<path d="M0 0 C2.6875 1.6875 2.6875 1.6875 4 4 C4.25 6.75 4.25 6.75 4 9 C2.35 9.66 0.7 10.32 -1 11 C-0.195625 11.474375 0.60875 11.94875 1.4375 12.4375 C4 14 4 14 5 15 C5.46889952 21.33014354 5.46889952 21.33014354 3.6875 23.875 C-0.2006669 26.46711126 -4.48922601 26.50217601 -9 26 C-12.58552881 24.36312815 -13.79315055 23.31027417 -16 20 C-16 18.68 -16 17.36 -16 16 C-15.01 15.67 -14.02 15.34 -13 15 C-11 16 -11 16 -10.1640625 18.015625 C-9.17948782 20.21926984 -9.17948782 20.21926984 -6.8359375 20.609375 C-5.61777344 20.67898437 -5.61777344 20.67898437 -4.375 20.75 C-3.55773437 20.80671875 -2.74046875 20.8634375 -1.8984375 20.921875 C-0.95871094 20.96054687 -0.95871094 20.96054687 0 21 C-0.6017445 18.52272891 -0.6017445 18.52272891 -2 16 C-4.54067501 14.64489124 -4.54067501 14.64489124 -7.5 13.875 C-12.80087527 12.29868709 -12.80087527 12.29868709 -15 9 C-14.8125 5.4375 -14.8125 5.4375 -14 2 C-9.55075648 -0.96616234 -5.21761951 -0.63267542 0 0 Z M-9 4 C-9.33 5.32 -9.66 6.64 -10 8 C-7.18490007 10.2773501 -7.18490007 10.2773501 -4 10 C-4 8.68 -4 7.36 -4 6 C-3.34 5.67 -2.68 5.34 -2 5 C-4.31 4.67 -6.62 4.34 -9 4 Z M-2 6 C-1 8 -1 8 -1 8 Z " fill="#B7B7B7" transform="translate(376,33)"/>
<path d="M0 0 C1.65 0 3.3 0 5 0 C5.33 6.27 5.66 12.54 6 19 C11.51162653 21.57091547 11.51162653 21.57091547 14.8125 19.8125 C17.25611213 18.11290965 17.25611213 18.11290965 18 15 C18.22718496 12.43365139 18.41608184 9.88321893 18.5625 7.3125 C18.60568359 6.61060547 18.64886719 5.90871094 18.69335938 5.18554688 C18.7991736 3.45724794 18.90006581 1.7286489 19 0 C20.65 0 22.3 0 24 0 C24 8.25 24 16.5 24 25 C22.35 25 20.7 25 19 25 C18.67 24.01 18.34 23.02 18 22 C17.319375 22.66 16.63875 23.32 15.9375 24 C12.25125882 26.50978123 10.38261849 26.62608836 6 26 C3.24670979 24.20437595 1.47372539 22.94745078 0 20 C-0.08372659 18.47851674 -0.10730027 16.95344222 -0.09765625 15.4296875 C-0.09443359 14.53378906 -0.09121094 13.63789062 -0.08789062 12.71484375 C-0.07951172 11.77769531 -0.07113281 10.84054688 -0.0625 9.875 C-0.05798828 8.93011719 -0.05347656 7.98523437 -0.04882812 7.01171875 C-0.03702357 4.67441613 -0.02055759 2.33723939 0 0 Z " fill="#B8B8B9" transform="translate(302,33)"/>
<path d="M0 0 C4.36047317 2.43180234 6.63852352 4.7428873 8.0625 9.5625 C8.124375 10.305 8.18625 11.0475 8.25 11.8125 C7.25 12.8125 7.25 12.8125 5.40234375 12.91015625 C3.3515625 12.87760417 1.30078125 12.84505208 -0.75 12.8125 C-1.03875 12.173125 -1.3275 11.53375 -1.625 10.875 C-2.57823451 8.66043921 -2.57823451 8.66043921 -4.75 7.8125 C-6.29023996 7.74299459 -7.83334988 7.72797643 -9.375 7.75 C-10.19226562 7.75902344 -11.00953125 7.76804687 -11.8515625 7.77734375 C-12.47804688 7.78894531 -13.10453125 7.80054688 -13.75 7.8125 C-13.75 8.8025 -13.75 9.7925 -13.75 10.8125 C-14.41 10.8125 -15.07 10.8125 -15.75 10.8125 C-15.75 11.4725 -15.75 12.1325 -15.75 12.8125 C-17.73 13.8025 -17.73 13.8025 -19.75 14.8125 C-20.20375 13.9875 -20.6575 13.1625 -21.125 12.3125 C-21.66125 11.4875 -22.1975 10.6625 -22.75 9.8125 C-23.41 9.8125 -24.07 9.8125 -24.75 9.8125 C-24.75 8.1625 -24.75 6.5125 -24.75 4.8125 C-23.656875 4.73 -22.56375 4.6475 -21.4375 4.5625 C-17.72895572 4.19621225 -17.72895572 4.19621225 -16 1.8125 C-15.5875 1.1525 -15.175 0.4925 -14.75 -0.1875 C-9.50483528 -1.93588824 -5.17489039 -1.63871529 0 0 Z " fill="#F6ECE7" transform="translate(24.75,23.1875)"/>
<path d="M0 0 C7.875 0.875 7.875 0.875 9 2 C9.0883967 4.3756852 9.11530305 6.72208674 9.09765625 9.09765625 C9.0962413 9.80651474 9.09482635 10.51537323 9.09336853 11.24571228 C9.08775443 13.51801712 9.07519963 15.79022475 9.0625 18.0625 C9.05748681 19.59960796 9.05292359 21.13671745 9.04882812 22.67382812 C9.03778042 26.44925642 9.02050641 30.22461171 9 34 C11.31 34 13.62 34 16 34 C16 35.32 16 36.64 16 38 C9.73 38 3.46 38 -3 38 C-3 36.68 -3 35.36 -3 34 C-1.02 34 0.96 34 3 34 C3.02891949 29.70834738 3.04677118 25.41671964 3.0625 21.125 C3.07087891 19.90167969 3.07925781 18.67835937 3.08789062 17.41796875 C3.09111328 16.25136719 3.09433594 15.08476563 3.09765625 13.8828125 C3.10289307 12.80402832 3.10812988 11.72524414 3.11352539 10.61376953 C3.17883106 8.01767814 3.17883106 8.01767814 2 6 C1.01 5.67 0.02 5.34 -1 5 C-0.67 3.35 -0.34 1.7 0 0 Z " fill="#A1A1A1" transform="translate(387,20)"/>
<path d="M0 0 C0.99 0.33 1.98 0.66 3 1 C3.33 3.31 3.66 5.62 4 8 C6.31 8.33 8.62 8.66 11 9 C11 10.32 11 11.64 11 13 C8.36 13 5.72 13 3 13 C3.33 18.61 3.66 24.22 4 30 C6.64 30 9.28 30 12 30 C12 31.32 12 32.64 12 34 C9.53183586 35.23408207 7.75338799 35.20197579 5 35.25 C4.113125 35.27578125 3.22625 35.3015625 2.3125 35.328125 C1.549375 35.21984375 0.78625 35.1115625 0 35 C-2.10209857 31.84685215 -2.2434761 31.13896919 -2.1953125 27.55078125 C-2.18564453 26.27944336 -2.18564453 26.27944336 -2.17578125 24.98242188 C-2.15902344 24.10134766 -2.14226562 23.22027344 -2.125 22.3125 C-2.11597656 21.41982422 -2.10695313 20.52714844 -2.09765625 19.60742188 C-2.07409748 17.40467686 -2.04120329 15.20247412 -2 13 C-3.65 13 -5.3 13 -7 13 C-7 11.68 -7 10.36 -7 9 C-5.35 9 -3.7 9 -2 9 C-2.04125 8.071875 -2.0825 7.14375 -2.125 6.1875 C-2 3 -2 3 0 0 Z " fill="#AEAEAE" transform="translate(441,24)"/>
<path d="M0 0 C3.3 0 6.6 0 10 0 C10 6.93 10 13.86 10 21 C12.31 21 14.62 21 17 21 C17 22.32 17 23.64 17 25 C11.06 25 5.12 25 -1 25 C-1.33 24.34 -1.66 23.68 -2 23 C-1.67 22.34 -1.34 21.68 -1 21 C0.98 21 2.96 21 5 21 C5.33 15.39 5.66 9.78 6 4 C4.35 4 2.7 4 1 4 C0.67 2.68 0.34 1.36 0 0 Z " fill="#B8B8B7" transform="translate(458,33)"/>
<path d="M0 0 C2.6875 1.6875 2.6875 1.6875 4 4 C4.25 6.75 4.25 6.75 4 9 C1.5625 8.625 1.5625 8.625 -1 8 C-1.33 7.34 -1.66 6.68 -2 6 C-4.32156597 5.59270772 -6.6568787 5.25561323 -9 5 C-9 5.99 -9 6.98 -9 8 C-6.525 8.99 -6.525 8.99 -4 10 C-4.99 10.495 -4.99 10.495 -6 11 C-6 11.99 -6 12.98 -6 14 C-9.03002206 13.66333088 -10.84001182 13.1094656 -13.375 11.375 C-15 9 -15 9 -14.9375 5.375 C-12.9513384 -1.77518176 -6.22629601 -0.754985 0 0 Z " fill="#B6B6B5" transform="translate(376,33)"/>
<path d="M0 0 C1.96191406 0.78271484 1.96191406 0.78271484 4 2 C4.46709352 4.66482841 4.69572473 6.95070966 4.75 9.625 C4.77964844 10.33140625 4.80929687 11.0378125 4.83984375 11.765625 C4.91055357 13.50980047 4.95754035 15.25490827 5 17 C7.64 17 10.28 17 13 17 C13 18.32 13 19.64 13 21 C10.49860398 22.25069801 8.72607309 22.13302467 5.9375 22.125 C4.58978516 22.12886719 4.58978516 22.12886719 3.21484375 22.1328125 C1 22 1 22 0 21 C-0.08685603 19.43827255 -0.10702219 17.87270656 -0.09765625 16.30859375 C-0.09443359 15.36435547 -0.09121094 14.42011719 -0.08789062 13.44726562 C-0.07951172 12.45404297 -0.07113281 11.46082031 -0.0625 10.4375 C-0.05798828 9.44041016 -0.05347656 8.44332031 -0.04882812 7.41601562 C-0.03700007 4.94395151 -0.02051849 2.47200482 0 0 Z " fill="#BBBBBB" transform="translate(440,37)"/>
<path d="M0 0 C3.6875 -0.25 3.6875 -0.25 7 0 C6.49396008 2.16874252 6.00016187 3.99967627 5 6 C4.01 6 3.02 6 2 6 C1.67 7.65 1.34 9.3 1 11 C0.34 11 -0.32 11 -1 11 C-1 11.66 -1 12.32 -1 13 C-2.98 13.99 -2.98 13.99 -5 15 C-5.45375 14.175 -5.9075 13.35 -6.375 12.5 C-6.91125 11.675 -7.4475 10.85 -8 10 C-8.66 10 -9.32 10 -10 10 C-10 8.35 -10 6.7 -10 5 C-8.906875 4.9175 -7.81375 4.835 -6.6875 4.75 C-2.9523634 4.42249654 -2.9523634 4.42249654 -1.5 1.9375 C-1.005 1.298125 -0.51 0.65875 0 0 Z " fill="#FBF5EE" transform="translate(10,23)"/>
<path d="M0 0 C0 2.64 0 5.28 0 8 C-1.11375 8.103125 -2.2275 8.20625 -3.375 8.3125 C-4.57125 8.539375 -5.7675 8.76625 -7 9 C-7.99 10.485 -7.99 10.485 -9 12 C-9 11.34 -9 10.68 -9 10 C-9.66 10 -10.32 10 -11 10 C-11 9.34 -11 8.68 -11 8 C-11.99 7.34 -12.98 6.68 -14 6 C-14.66 7.98 -15.32 9.96 -16 12 C-16.33 12 -16.66 12 -17 12 C-16.51327434 5.67256637 -16.51327434 5.67256637 -14.1875 2.625 C-9.74860011 -0.67246849 -5.34821612 -0.08913694 0 0 Z " fill="#F0E7E2" transform="translate(90,21)"/>
<path d="M0 0 C-1.32 0.33 -2.64 0.66 -4 1 C-4 2.32 -4 3.64 -4 5 C-5.6396875 5.5259375 -5.6396875 5.5259375 -7.3125 6.0625 C-10.46435287 7.37683541 -11.62316459 8.53564713 -12.9375 11.6875 C-13.288125 12.780625 -13.63875 13.87375 -14 15 C-14.33 14.34 -14.66 13.68 -15 13 C-16.32 13.33 -17.64 13.66 -19 14 C-18.43289338 10.03025365 -17.38663899 7.23901005 -15 4 C-9.98481735 0.39935605 -6.08106476 -0.13820602 0 0 Z " fill="#ACACAC" transform="translate(283,22)"/>
<path d="M0 0 C0.66 0.33 1.32 0.66 2 1 C1.67 1.99 1.34 2.98 1 4 C0.39671875 4.02578125 -0.2065625 4.0515625 -0.828125 4.078125 C-6.02592748 4.38876005 -6.02592748 4.38876005 -10.4375 6.9375 C-10.953125 7.618125 -11.46875 8.29875 -12 9 C-12.66 9.66 -13.32 10.32 -14 11 C-14.66 10.67 -15.32 10.34 -16 10 C-16.375 7.8125 -16.375 7.8125 -16 5 C-11.35131425 -0.5050226 -6.98111535 -0.8789174 0 0 Z " fill="#BBBBBB" transform="translate(348,33)"/>
<path d="M0 0 C1.65 0 3.3 0 5 0 C5 5.94 5 11.88 5 18 C3.35 17.01 1.7 16.02 0 15 C-0.38060051 12.21400429 -0.47962905 10.06627249 -0.3125 7.3125 C-0.27866211 6.2596582 -0.27866211 6.2596582 -0.24414062 5.18554688 C-0.18531647 3.4561167 -0.09563389 1.72778562 0 0 Z " fill="#AEAEAE" transform="translate(321,33)"/>
<path d="M0 0 C2.5625 0.4375 2.5625 0.4375 4.4375 2.75 C5.5625 5.4375 5.5625 5.4375 4.5625 8.4375 C1.77386993 9.83181504 -0.35828868 9.69410094 -3.4375 9.4375 C-5.4375 6.4375 -5.4375 6.4375 -5.1875 4.375 C-4.06357913 1.47153775 -3.07031414 0.55108202 0 0 Z " fill="#F5EBE6" transform="translate(102.4375,21.5625)"/>
<path d="M0 0 C3 1 3 1 4.0625 3 C4.371875 3.66 4.68125 4.32 5 5 C5.66 5.33 6.32 5.66 7 6 C7 6.66 7 7.32 7 8 C8.98 8 10.96 8 13 8 C13 8.99 13 9.98 13 11 C4.33274336 11.44070796 4.33274336 11.44070796 0 8 C-2 5 -2 5 -2 1 C-1.34 0.67 -0.68 0.34 0 0 Z " fill="#B8B9B8" transform="translate(362,48)"/>
<path d="M0 0 C2.5 0.25 2.5 0.25 4.5 2.25 C4.75 4.75 4.75 4.75 4.5 7.25 C3.84 7.91 3.18 8.57 2.5 9.25 C-0.625 8.875 -0.625 8.875 -3.5 8.25 C-4.125 5.375 -4.125 5.375 -4.5 2.25 C-2.5 0.25 -2.5 0.25 0 0 Z " fill="#DD3839" transform="translate(484.5,49.75)"/>
<path d="M0 0 C0.99 0.66 1.98 1.32 3 2 C5.27912938 2.45394552 5.27912938 2.45394552 7.6875 2.625 C8.49574219 2.69976562 9.30398438 2.77453125 10.13671875 2.8515625 C10.75160156 2.90054688 11.36648438 2.94953125 12 3 C12 3.99 12 4.98 12 6 C6.06 6 0.12 6 -6 6 C-6 4.68 -6 3.36 -6 2 C-4.02 2 -2.04 2 0 2 C0 1.34 0 0.68 0 0 Z " fill="#BDBFC0" transform="translate(390,52)"/>
<path d="M0 0 C0.66 0.33 1.32 0.66 2 1 C2 3.64 2 6.28 2 9 C2.99 9 3.98 9 5 9 C5 10.32 5 11.64 5 13 C2.69 13 0.38 13 -2 13 C-3.05899758 9.82300727 -2.96817951 9.02723312 -2.125 5.9375 C-1.94195312 5.24527344 -1.75890625 4.55304687 -1.5703125 3.83984375 C-1 2 -1 2 0 0 Z " fill="#BCBCBC" transform="translate(427,45)"/>
<path d="M0 0 C2.29236019 0.25190771 4.53683678 0.58678574 6.80078125 1.0234375 C5.81078125 1.6834375 4.82078125 2.3434375 3.80078125 3.0234375 C2.4464545 4.33544154 1.11344643 5.66975154 -0.19921875 7.0234375 C-1.19921875 8.0234375 -2.19921875 9.0234375 -3.19921875 10.0234375 C-4.18921875 9.6934375 -5.17921875 9.3634375 -6.19921875 9.0234375 C-4.95329524 0.05278823 -4.95329524 0.05278823 0 0 Z " fill="#B6B7B5" transform="translate(412.19921875,33.9765625)"/>
<path d="M0 0 C3.23060419 0.55700072 5.0658223 1.29215122 7 4 C7.1875 6.6875 7.1875 6.6875 7 9 C4.5625 8.625 4.5625 8.625 2 8 C1.67 7.34 1.34 6.68 1 6 C-1.3140622 5.26924352 -3.64828869 4.59861742 -6 4 C-6 3.67 -6 3.34 -6 3 C-5.195625 2.87625 -4.39125 2.7525 -3.5625 2.625 C-2.716875 2.41875 -1.87125 2.2125 -1 2 C-0.67 1.34 -0.34 0.68 0 0 Z " fill="#B3B3B0" transform="translate(373,33)"/>
<path d="M0 0 C0.556875 0.763125 1.11375 1.52625 1.6875 2.3125 C3.96679369 4.96140888 5.93599872 6.38288822 9 8 C8.01 9.32 7.02 10.64 6 12 C0.25 9.375 0.25 9.375 -2 6 C-1.45945946 1.45945946 -1.45945946 1.45945946 0 0 Z " fill="#BABABA" transform="translate(334,47)"/>
<path d="M0 0 C0.598125 0.350625 1.19625 0.70125 1.8125 1.0625 C1.8125 2.7125 1.8125 4.3625 1.8125 6.0625 C-0.8275 6.7225 -3.4675 7.3825 -6.1875 8.0625 C-6.3125 2.3125 -6.3125 2.3125 -5.1875 0.0625 C-2.1875 -0.9375 -2.1875 -0.9375 0 0 Z " fill="#B0B0AF" transform="translate(467.1875,22.9375)"/>
<path d="M0 0 C1.485 0.99 1.485 0.99 3 2 C3 2.66 3 3.32 3 4 C7.62 4 12.24 4 17 4 C13.80158965 6.13227356 12.75440904 6.23065468 9.0625 6.375 C5.44463447 6.65492244 4.30802658 6.75797912 1.375 9.0625 C0.92125 9.701875 0.4675 10.34125 0 11 C0 7.37 0 3.74 0 0 Z " fill="#B2B2B1" transform="translate(331,40)"/>
<path d="M0 0 C0.66 0.66 1.32 1.32 2 2 C0.73542969 2.30744141 0.73542969 2.30744141 -0.5546875 2.62109375 C-1.65039062 2.89050781 -2.74609375 3.15992188 -3.875 3.4375 C-5.51082031 3.83775391 -5.51082031 3.83775391 -7.1796875 4.24609375 C-9.92484721 4.8786478 -9.92484721 4.8786478 -12 6 C-11.67 4.02 -11.34 2.04 -11 0 C-7.02274741 -1.05280216 -3.99945368 -0.97764423 0 0 Z " fill="#C1C1C1" transform="translate(422,44)"/>
<path d="M0 0 C0.33 0 0.66 0 1 0 C1 1.98 1 3.96 1 6 C-4.94 6.33 -10.88 6.66 -17 7 C-15.68 7.99 -14.36 8.98 -13 10 C-15.97 9.505 -15.97 9.505 -19 9 C-19.33 9.66 -19.66 10.32 -20 11 C-20 9 -20 7 -20 5 C-14.06 4.67 -8.12 4.34 -2 4 C-1.34 2.68 -0.68 1.36 0 0 Z " fill="#ECE5DC" transform="translate(143,42)"/>
<path d="M0 0 C0.99 0.33 1.98 0.66 3 1 C3.125 6.75 3.125 6.75 2 9 C1.34 9 0.68 9 0 9 C0 9.66 0 10.32 0 11 C-1.32 11 -2.64 11 -4 11 C-3.5247412 9.35303396 -3.04468109 7.70745272 -2.5625 6.0625 C-2.29566406 5.14597656 -2.02882813 4.22945312 -1.75390625 3.28515625 C-1 1 -1 1 0 0 Z " fill="#B0B0AF" transform="translate(408,45)"/>
<path d="M0 0 C0.33 1.98 0.66 3.96 1 6 C-5.6 6 -12.2 6 -19 6 C-19 5.67 -19 5.34 -19 5 C-11.08 4.505 -11.08 4.505 -3 4 C-3.66 3.01 -4.32 2.02 -5 1 C-3 0 -3 0 0 0 Z " fill="#FDF7F4" transform="translate(113,52)"/>
<path d="M0 0 C2.31 0 4.62 0 7 0 C7 1.98 7 3.96 7 6 C5.02 6 3.04 6 1 6 C0 1.125 0 1.125 0 0 Z " fill="#FCF2EC" transform="translate(82,22)"/>
<path d="M0 0 C0.598125 0.61875 1.19625 1.2375 1.8125 1.875 C4.00811144 4.13676954 4.00811144 4.13676954 7 6 C6.34 6 5.68 6 5 6 C5 6.99 5 7.98 5 9 C0.25 8.25 0.25 8.25 -2 6 C-1.44444444 1.44444444 -1.44444444 1.44444444 0 0 Z " fill="#AFAFAF" transform="translate(365,38)"/>
<path d="M0 0 C1.65 0 3.3 0 5 0 C4.91291331 1.45945288 4.80473093 2.91765868 4.6875 4.375 C4.62949219 5.18710937 4.57148438 5.99921875 4.51171875 6.8359375 C4 9 4 9 1 11 C0.67 7.37 0.34 3.74 0 0 Z " fill="#B8B8B8" transform="translate(321,33)"/>
<path d="M0 0 C0.78375 0.04125 1.5675 0.0825 2.375 0.125 C3.0625 1.9375 3.0625 1.9375 3.375 4.125 C1.9375 5.875 1.9375 5.875 0.375 7.125 C-2.625 6.125 -2.625 6.125 -3.8125 4.0625 C-4.2146875 3.1034375 -4.2146875 3.1034375 -4.625 2.125 C-2.625 0.125 -2.625 0.125 0 0 Z " fill="#FAEFED" transform="translate(139.625,49.875)"/>
<path d="M0 0 C0.99 0 1.98 0 3 0 C3 1.65 3 3.3 3 5 C-2.94 5 -8.88 5 -15 5 C-15 4.67 -15 4.34 -15 4 C-14.16855469 3.96261719 -13.33710938 3.92523438 -12.48046875 3.88671875 C-11.39378906 3.82097656 -10.30710938 3.75523438 -9.1875 3.6875 C-8.10855469 3.62949219 -7.02960938 3.57148437 -5.91796875 3.51171875 C-2.71926018 2.95076718 -2.07941362 2.32919304 0 0 Z " fill="#F3EAE2" transform="translate(239,43)"/>
<path d="M0 0 C0.66 0 1.32 0 2 0 C2.66 1.32 3.32 2.64 4 4 C3.67 4.33 3.34 4.66 3 5 C3.66 5.33 4.32 5.66 5 6 C4.67 6.99 4.34 7.98 4 9 C2.35 9 0.7 9 -1 9 C-1.33 7.68 -1.66 6.36 -2 5 C-1.34 5 -0.68 5 0 5 C0 3.35 0 1.7 0 0 Z " fill="#CFCFB0" transform="translate(372,39)"/>
<path d="M0 0 C0.33 1.32 0.66 2.64 1 4 C1.66 4 2.32 4 3 4 C3.33 5.32 3.66 6.64 4 8 C3.01 8.66 2.02 9.32 1 10 C0.34 8.68 -0.32 7.36 -1 6 C-1.66 6 -2.32 6 -3 6 C-3 4.35 -3 2.7 -3 1 C-2.01 0.67 -1.02 0.34 0 0 Z " fill="#988D8E" transform="translate(3,27)"/>
<path d="M0 0 C1.98 0.495 1.98 0.495 4 1 C4 1.66 4 2.32 4 3 C8.62 3 13.24 3 18 3 C18 3.33 18 3.66 18 4 C12.06 4 6.12 4 0 4 C-0.33 3.34 -0.66 2.68 -1 2 C-0.67 1.34 -0.34 0.68 0 0 Z " fill="#CCCCCB" transform="translate(457,54)"/>
<path d="M0 0 C0.66 0 1.32 0 2 0 C2 0.66 2 1.32 2 2 C5.63 2 9.26 2 13 2 C13 1.34 13 0.68 13 0 C14.32 0 15.64 0 17 0 C17 0.99 17 1.98 17 3 C11.39 3 5.78 3 0 3 C0 2.01 0 1.02 0 0 Z " fill="#D1D3D4" transform="translate(385,55)"/>
<path d="M0 0 C2.31 0 4.62 0 7 0 C7 1.32 7 2.64 7 4 C4.36 4 1.72 4 -1 4 C-0.67 2.68 -0.34 1.36 0 0 Z " fill="#CCCCCA" transform="translate(446,54)"/>
<path d="M0 0 C0.33 0 0.66 0 1 0 C1 2.97 1 5.94 1 9 C1.99 9.33 2.98 9.66 4 10 C4 10.66 4 11.32 4 12 C2.02 12.99 2.02 12.99 0 14 C-0.33 13.67 -0.66 13.34 -1 13 C-0.90982004 10.80949979 -0.75333792 8.621534 -0.5625 6.4375 C-0.46066406 5.23996094 -0.35882813 4.04242188 -0.25390625 2.80859375 C-0.17011719 1.88175781 -0.08632813 0.95492187 0 0 Z " fill="#BABAB9" transform="translate(292,36)"/>
<path d="M0 0 C2.31 0.33 4.62 0.66 7 1 C6.34 2.65 5.68 4.3 5 6 C3.35 5.67 1.7 5.34 0 5 C0 3.35 0 1.7 0 0 Z " fill="#FBF3EE" transform="translate(1,44)"/>
<path d="M0 0 C1.65 0 3.3 0 5 0 C5.33 0.99 5.66 1.98 6 3 C3 5 3 5 -1 5 C-0.67 3.35 -0.34 1.7 0 0 Z " fill="#A9A9A9" transform="translate(387,20)"/>
<path d="M0 0 C0.99 0.33 1.98 0.66 3 1 C3 5 3 5 2 8 C1.67 7.34 1.34 6.68 1 6 C-1.3140622 5.26924352 -3.64828869 4.59861742 -6 4 C-6 3.67 -6 3.34 -6 3 C-5.195625 2.87625 -4.39125 2.7525 -3.5625 2.625 C-2.716875 2.41875 -1.87125 2.2125 -1 2 C-0.67 1.34 -0.34 0.68 0 0 Z " fill="#A2A2A1" transform="translate(373,33)"/>
<path d="M0 0 C0 1.32 0 2.64 0 4 C-2.31 4 -4.62 4 -7 4 C-7.33 3.34 -7.66 2.68 -8 2 C-2.25 0 -2.25 0 0 0 Z " fill="#D5D5D6" transform="translate(432,54)"/>
<path d="M0 0 C1.98 0 3.96 0 6 0 C6 1.32 6 2.64 6 4 C3.69 4 1.38 4 -1 4 C-0.67 2.68 -0.34 1.36 0 0 Z " fill="#B9B9B9" transform="translate(278,54)"/>
<path d="M0 0 C0.66 0.33 1.32 0.66 2 1 C1.01 2.98 0.02 4.96 -1 7 C-4.3 6.34 -7.6 5.68 -11 5 C-11 4.67 -11 4.34 -11 4 C-5.555 3.505 -5.555 3.505 0 3 C0 2.01 0 1.02 0 0 Z " fill="#ECE2DE" transform="translate(25,47)"/>
<path d="M0 0 C2.31 0 4.62 0 7 0 C7 0.99 7 1.98 7 3 C4.36 3 1.72 3 -1 3 C-0.67 2.01 -0.34 1.02 0 0 Z " fill="#BDBDBF" transform="translate(444,34)"/>
<path d="M0 0 C0.33 0.66 0.66 1.32 1 2 C0.67 2.66 0.34 3.32 0 4 C0.66 4.33 1.32 4.66 2 5 C1.67 6.65 1.34 8.3 1 10 C0.34 10 -0.32 10 -1 10 C-2.25 3.375 -2.25 3.375 0 0 Z " fill="#BEBEBE" transform="translate(363,34)"/>
<path d="M0 0 C1.98 0 3.96 0 6 0 C6 2.31 6 4.62 6 7 C5.01 6.67 4.02 6.34 3 6 C3 5.01 3 4.02 3 3 C1.56249809 1.31201173 1.56249809 1.31201173 0 0 Z " fill="#F0E9E2" transform="translate(83,33)"/>
<path d="M0 0 C2.64 0 5.28 0 8 0 C8.33 1.32 8.66 2.64 9 4 C8.1646875 3.7834375 8.1646875 3.7834375 7.3125 3.5625 C4.88615805 2.97230872 2.45093655 2.476571 0 2 C0 1.34 0 0.68 0 0 Z " fill="#C7C7C7" transform="translate(369,54)"/>
<path d="M0 0 C3.83206182 0.41427695 6.08025204 1.51280729 9 4 C6.03 4 3.06 4 0 4 C-0.33 3.01 -0.66 2.02 -1 1 C-0.67 0.67 -0.34 0.34 0 0 Z " fill="#B9B9B9" transform="translate(442,55)"/>
<path d="M0 0 C-1.32 0.33 -2.64 0.66 -4 1 C-4 2.32 -4 3.64 -4 5 C-6.99332739 4.0022242 -7.94766315 3.2477975 -10 1 C-6.61981469 -0.04005702 -3.5219721 -0.08004482 0 0 Z " fill="#AAAAAA" transform="translate(283,22)"/>
<path d="M0 0 C0.99 1.32 1.98 2.64 3 4 C2.67 4.66 2.34 5.32 2 6 C0.68 5.67 -0.64 5.34 -2 5 C-2 3.68 -2 2.36 -2 1 C-1.34 0.67 -0.68 0.34 0 0 Z " fill="#AFB0B0" transform="translate(364,49)"/>
<path d="M0 0 C0.99 0 1.98 0 3 0 C3.33 1.32 3.66 2.64 4 4 C2.35 4.66 0.7 5.32 -1 6 C-0.67 4.02 -0.34 2.04 0 0 Z " fill="#BABAB9" transform="translate(411,44)"/>
<path d="M0 0 C2 3 2 3 2 5 C0.35 5 -1.3 5 -3 5 C-3 4.01 -3 3.02 -3 2 C-2.01 1.34 -1.02 0.68 0 0 Z " fill="#C2C2C2" transform="translate(324,53)"/>
</svg>
